<svg width="10" height="10" viewBox="0 0 10 10" fill="none" xmlns="http://www.w3.org/2000/svg">
<path d="M9.56331 0.650914C9.11206 0.407932 8.60874 0.876539 8.31369 1.15423C7.63684 1.81375 7.0641 2.57741 6.42191 3.27164C5.71032 4.03529 5.0508 4.79895 4.32186 5.54528C3.90532 5.96181 3.45407 6.41307 3.17638 6.93374C2.55157 6.32626 2.01354 5.66674 1.31931 5.12874C0.815989 4.74691 -0.0170889 4.46922 0.000266917 5.38907C0.0349785 6.58665 1.09368 7.87098 1.87469 8.68667C2.20445 9.03379 2.63835 9.39826 3.14166 9.41562C3.74912 9.45033 4.37393 8.72139 4.7384 8.3222C5.38059 7.62797 5.90126 6.84693 6.49133 6.13537C7.25499 5.19816 8.036 4.27827 8.7823 3.32371C9.2509 2.73361 10.7261 1.27569 9.56331 0.650914ZM0.763893 5.31965C0.746538 5.31965 0.729182 5.31965 0.69447 5.33698C0.625047 5.31965 0.57298 5.30227 0.503556 5.26755C0.555624 5.23284 0.642403 5.2502 0.763893 5.31965Z" fill="#CC32A1"/>
</svg>
